<?xml version="1.0" standalone="no"?>
<!DOCTYPE svg PUBLIC "-//W3C//DTD SVG 20010904//EN"
 "http://www.w3.org/TR/2001/REC-SVG-20010904/DTD/svg10.dtd">
<svg version="1.0" xmlns="http://www.w3.org/2000/svg"
 width="800.000000pt" height="800.000000pt" viewBox="0 0 800.000000 800.000000"
 preserveAspectRatio="xMidYMid meet">

<g transform="translate(0.000000,800.000000) scale(0.100000,-0.100000)"
fill="#000000" stroke="none">
<path d="M3685 7994 c-391 -40 -655 -94 -970 -200 -581 -194 -1100 -518 -1545
-964 -642 -641 -1028 -1431 -1147 -2345 -26 -201 -26 -769 0 -970 118 -909
503 -1699 1137 -2336 91 -91 208 -201 260 -244 619 -512 1302 -809 2095 -912
201 -26 769 -26 970 0 793 103 1478 401 2095 912 117 97 380 359 482 480 504
602 812 1309 915 2100 26 201 26 769 0 970 -63 482 -190 900 -402 1320 -202
400 -426 708 -754 1035 -627 625 -1406 1009 -2296 1131 -121 17 -214 21 -475
24 -179 1 -343 1 -365 -1z m252 -2264 c510 -1398 805 -2214 861 -2383 15 -43
32 -76 38 -75 6 2 185 172 398 378 213 206 395 376 405 378 14 2 636 -138 678
-153 13 -4 -58 -75 -787 -780 -340 -329 -479 -469 -475 -476 4 -6 130 -361
491 -1383 80 -225 142 -411 140 -414 -6 -5 -669 148 -685 158 -9 5 -107 279
-433 1205 -78 220 -145 404 -149 409 -11 12 -20 3 -602 -562 -268 -261 -485
-477 -482 -482 2 -4 19 -10 37 -13 18 -3 80 -17 137 -31 l104 -24 301 292
c339 328 389 376 396 376 8 0 63 -165 59 -176 -3 -8 -584 -573 -675 -657 l-30
-27 -345 81 c-189 44 -345 82 -347 83 -1 2 132 133 295 291 164 159 368 357
453 440 449 438 759 735 766 735 5 0 73 -181 151 -403 78 -221 219 -620 314
-887 94 -267 176 -490 182 -496 11 -11 277 -78 283 -72 3 4 11 -19 -315 903
-138 390 -250 712 -249 716 2 3 95 96 208 205 113 109 342 332 510 494 168
163 326 316 353 339 26 24 47 47 47 50 0 4 -64 22 -141 40 l-142 33 -71 -69
c-39 -38 -217 -210 -396 -383 -179 -173 -355 -343 -392 -379 -37 -36 -70 -62
-73 -59 -3 3 -85 228 -181 499 -96 272 -196 548 -221 614 -25 66 -71 194 -103
285 -59 167 -941 2592 -961 2643 l-11 27 -183 0 -183 0 -10 -27 c-5 -16 -134
-369 -286 -787 -152 -417 -276 -760 -276 -762 0 -2 239 -4 531 -4 501 0 530 1
525 18 -39 120 -293 804 -300 805 -5 1 -56 -130 -115 -290 l-106 -293 -93 0
c-92 0 -93 0 -86 23 33 105 394 1082 400 1082 5 0 515 -1387 550 -1497 5 -17
-26 -18 -775 -18 -430 0 -781 2 -781 4 0 3 668 1843 695 1914 3 10 71 12 312
10 l307 -3 533 -1465z m-192 -717 c4 -10 51 -142 106 -293 55 -151 106 -288
113 -305 14 -30 77 -208 135 -380 16 -49 91 -259 165 -465 l135 -375 -62 -62
c-34 -35 -66 -63 -72 -63 -6 0 -60 138 -119 308 -115 324 -361 1009 -466 1300
l-63 172 -747 0 -748 0 -10 -27 c-5 -16 -53 -147 -106 -292 -53 -145 -96 -267
-96 -272 0 -5 58 -9 129 -9 l129 0 35 98 c19 53 49 136 67 185 l32 87 89 0
c63 0 89 -4 89 -12 0 -7 -42 -128 -92 -270 l-93 -258 -322 0 c-178 0 -323 2
-323 3 0 2 6 17 14 33 8 16 83 218 166 449 84 231 156 430 161 443 l9 22 869
0 c818 0 869 -1 876 -17z"/>
</g>
</svg>
